<svg xmlns="http://www.w3.org/2000/svg" viewBox="0 0 512 512" role="img" aria-label="Tu Consultorio">
  <defs>
    <linearGradient id="g" x1="0" y1="0" x2="1" y2="1">
      <stop offset="0" stop-color="#00a5a0"/>
      <stop offset="1" stop-color="#0a0a0a"/>
    </linearGradient>
    <filter id="shadow" x="-20%" y="-20%" width="140%" height="140%">
      <feDropShadow dx="0" dy="10" stdDeviation="12" flood-color="#000" flood-opacity="0.35"/>
    </filter>
  </defs>

  <rect width="512" height="512" rx="112" fill="url(#g)"/>
  <rect x="64" y="64" width="384" height="384" rx="96" fill="#0a0a0a" opacity="0.25" filter="url(#shadow)"/>

  <g fill="#ffffff">
    <path d="M256 150c-53.6 0-97 43.4-97 97s43.4 97 97 97 97-43.4 97-97-43.4-97-97-97Zm0 44c29.2 0 53 23.8 53 53s-23.8 53-53 53-53-23.8-53-53 23.8-53 53-53Z" opacity="0.95"/>
    <path d="M156 370c28.6-28.6 63.8-43 100-43s71.4 14.4 100 43c9.6 9.6 9.6 25.1 0 34.7-9.6 9.6-25.1 9.6-34.7 0-19.1-19.1-42.6-28.7-65.3-28.7s-46.2 9.6-65.3 28.7c-9.6 9.6-25.1 9.6-34.7 0-9.6-9.6-9.6-25.1 0-34.7Z" opacity="0.95"/>
  </g>
</svg>
